<svg xmlns="http://www.w3.org/2000/svg" viewBox="0 0 128 128" width="128" height="128">
  <!-- Solid Black Canvas -->
  <rect width="128" height="128" fill="#000000" />

  <!-- Figma Frame Selection Border -->
  <rect x="14" y="14" width="100" height="100" rx="10" fill="#000000" stroke="#18a0fb" stroke-width="4.5" />

  <!-- 4 Corner Figma Bounding Handles -->
  <rect x="7" y="7" width="14" height="14" rx="2.5" fill="#ffffff" stroke="#18a0fb" stroke-width="2.5" />
  <rect x="107" y="7" width="14" height="14" rx="2.5" fill="#ffffff" stroke="#18a0fb" stroke-width="2.5" />
  <rect x="7" y="107" width="14" height="14" rx="2.5" fill="#ffffff" stroke="#18a0fb" stroke-width="2.5" />
  <rect x="107" y="107" width="14" height="14" rx="2.5" fill="#ffffff" stroke="#18a0fb" stroke-width="2.5" />

  <!-- Bold Modern Crisp Monogram Letter "J" -->
  <path d="M42 34 H84 V46 H69 V73 C69 82 62 88 51 88 C40 88 33 82 31 73 L45 70 C46 74 48 76 51 76 C54 76 56 74 56 70 V34 H42 Z" fill="#ffffff" />
</svg>